<svg xmlns="http://www.w3.org/2000/svg" width="1920" height="1080" viewBox="0 0 1920 1080">
  <defs>
    <linearGradient id="bg" x1="0" y1="0" x2="1" y2="1"><stop stop-color="#0B0D0F"/><stop offset="1" stop-color="#151A1D"/></linearGradient>
    <pattern id="grid" width="64" height="64" patternUnits="userSpaceOnUse"><path d="M64 0H0V64" fill="none" stroke="#2A3035" stroke-width="1" opacity=".42"/></pattern>
    <filter id="glow"><feGaussianBlur stdDeviation="9" result="b"/><feMerge><feMergeNode in="b"/><feMergeNode in="SourceGraphic"/></feMerge></filter>
  </defs>
  <rect width="1920" height="960" fill="url(#bg)"/>
  <rect width="1920" height="960" fill="url(#grid)"/>
  <path d="M0 820H1920" stroke="#2A3035"/><path d="M1250 0V1080" stroke="#2A3035"/>

  <g transform="translate(128 118)">
    <rect width="76" height="76" rx="14" fill="#171B1E" stroke="#3A4249" stroke-width="2"/>
    <path d="M20 25H56M20 38H56M20 51H56" stroke="#748084" stroke-width="3" stroke-linecap="round"/>
    <circle cx="48" cy="25" r="5" fill="#B8F34A"/><circle cx="31" cy="38" r="5" fill="#71D9E2"/><circle cx="41" cy="51" r="5" fill="#F1F3EF"/>
  </g>
  <text x="128" y="278" fill="#F1F3EF" font-family="Bahnschrift,Arial,sans-serif" font-size="94" font-weight="700" letter-spacing="3">SYNC SAME PROPS</text>
  <text x="133" y="345" fill="#B8F34A" font-family="Microsoft YaHei,Arial,sans-serif" font-size="36" font-weight="600">批量同步修改相似属性</text>
  <text x="132" y="416" fill="#919B9D" font-family="Bahnschrift,Arial,sans-serif" font-size="25" letter-spacing="1">SELECT ONE  /  CHOOSE PROPERTIES  /  EDIT ONCE</text>
  <text x="132" y="478" fill="#D7DBD7" font-family="Microsoft YaHei,Arial,sans-serif" font-size="27">选择一个基准对象，自由组合属性，一次修改自动同步。</text>

  <g transform="translate(132 570)" font-family="Microsoft YaHei,Arial,sans-serif" font-size="22">
    <rect width="170" height="54" rx="3" fill="#20262A" stroke="#3A4249"/><rect x="188" width="170" height="54" rx="3" fill="#20262A" stroke="#3A4249"/><rect x="376" width="170" height="54" rx="3" fill="#20262A" stroke="#3A4249"/>
    <text x="85" y="35" fill="#F1F3EF" text-anchor="middle">字体 + 字号</text><text x="273" y="35" fill="#F1F3EF" text-anchor="middle">填充 + 描边</text><text x="461" y="35" fill="#F1F3EF" text-anchor="middle">宽度 + 高度</text>
  </g>

  <g transform="translate(1350 170)">
    <path d="M214 158V337M214 337L79 484M214 337L349 484" fill="none" stroke="#71D9E2" stroke-width="3" stroke-dasharray="9 12" opacity=".8"/>
    <circle cx="214" cy="337" r="8" fill="#B8F34A" filter="url(#glow)"/>
    <g transform="translate(79 0)"><rect width="270" height="158" rx="8" fill="#20262A" stroke="#B8F34A" stroke-width="3"/><rect x="34" y="36" width="202" height="24" rx="3" fill="#B8F34A"/><rect x="34" y="80" width="140" height="12" rx="2" fill="#748084"/><rect x="34" y="108" width="181" height="12" rx="2" fill="#4B5559"/><text x="135" y="-24" fill="#B8F34A" text-anchor="middle" font-family="Bahnschrift,Arial" font-size="19" letter-spacing="2">REFERENCE</text></g>
    <g transform="translate(-56 484)"><rect width="270" height="158" rx="8" fill="#1A1F22" stroke="#3A4249" stroke-width="2"/><rect x="34" y="36" width="202" height="24" rx="3" fill="#B8F34A"/><rect x="34" y="80" width="140" height="12" rx="2" fill="#748084"/><rect x="34" y="108" width="181" height="12" rx="2" fill="#4B5559"/></g>
    <g transform="translate(214 484)"><rect width="270" height="158" rx="8" fill="#1A1F22" stroke="#3A4249" stroke-width="2"/><rect x="34" y="36" width="202" height="24" rx="3" fill="#B8F34A"/><rect x="34" y="80" width="140" height="12" rx="2" fill="#748084"/><rect x="34" y="108" width="181" height="12" rx="2" fill="#4B5559"/></g>
  </g>
  <text x="128" y="988" fill="#626B6D" font-family="Bahnschrift,Arial,sans-serif" font-size="18" letter-spacing="2">23 PROPERTIES · LIVE TRACKING · FIGMA PLUGIN</text>
</svg>
